<svg width="141" height="131" viewBox="0 0 141 131" fill="none" xmlns="http://www.w3.org/2000/svg">
<path d="M34.3688 93.3373C39.3625 89.7894 44.9438 86.992 51.1125 84.9452C57.2813 82.8983 63.7438 81.8748 70.5 81.8748C77.2562 81.8748 83.7188 82.8983 89.8875 84.9452C96.0563 86.992 101.637 89.7894 106.631 93.3373C110.058 89.6075 112.727 85.3773 114.636 80.6467C116.545 75.9162 117.5 70.8672 117.5 65.4998C117.5 53.4005 112.922 43.0979 103.767 34.592C94.612 26.0861 83.5229 21.8332 70.5 21.8332C57.4771 21.8332 46.388 26.0861 37.2328 34.592C28.0776 43.0979 23.5 53.4005 23.5 65.4998C23.5 70.8672 24.4547 75.9162 26.3641 80.6467C28.2734 85.3773 30.9417 89.6075 34.3688 93.3373ZM70.5 70.9582C64.7229 70.9582 59.8516 69.116 55.8859 65.4316C51.9203 61.7472 49.9375 57.2214 49.9375 51.854C49.9375 46.4866 51.9203 41.9608 55.8859 38.2764C59.8516 34.592 64.7229 32.7498 70.5 32.7498C76.2771 32.7498 81.1484 34.592 85.1141 38.2764C89.0797 41.9608 91.0625 46.4866 91.0625 51.854C91.0625 57.2214 89.0797 61.7472 85.1141 65.4316C81.1484 69.116 76.2771 70.9582 70.5 70.9582ZM70.5 120.083C62.3729 120.083 54.7354 118.65 47.5875 115.785C40.4396 112.919 34.2219 109.03 28.9344 104.118C23.6469 99.2051 19.4609 93.4283 16.3766 86.7873C13.2922 80.1464 11.75 73.0505 11.75 65.4998C11.75 57.9491 13.2922 50.8533 16.3766 44.2123C19.4609 37.5714 23.6469 31.7946 28.9344 26.8821C34.2219 21.9696 40.4396 18.0806 47.5875 15.2149C54.7354 12.3493 62.3729 10.9165 70.5 10.9165C78.6271 10.9165 86.2646 12.3493 93.4125 15.2149C100.56 18.0806 106.778 21.9696 112.066 26.8821C117.353 31.7946 121.539 37.5714 124.623 44.2123C127.708 50.8533 129.25 57.9491 129.25 65.4998C129.25 73.0505 127.708 80.1464 124.623 86.7873C121.539 93.4283 117.353 99.2051 112.066 104.118C106.778 109.03 100.56 112.919 93.4125 115.785C86.2646 118.65 78.6271 120.083 70.5 120.083Z" fill="white"/>
</svg>
