<svg width="111" height="112" viewBox="0 0 111 112" fill="none" xmlns="http://www.w3.org/2000/svg">
<path d="M90.1875 24.5H78.1683L73.2773 17.115C72.6449 16.1586 71.7887 15.374 70.7845 14.8307C69.7802 14.2874 68.6587 14.0021 67.5192 14H43.4808C42.3413 14.0021 41.2198 14.2874 40.2155 14.8307C39.2113 15.374 38.3551 16.1586 37.7227 17.115L32.8317 24.5H20.8125C18.0526 24.5 15.4057 25.6062 13.4542 27.5754C11.5026 29.5445 10.4063 32.2152 10.4062 35V84C10.4063 86.7848 11.5026 89.4555 13.4542 91.4246C15.4057 93.3938 18.0526 94.5 20.8125 94.5H90.1875C92.9474 94.5 95.5943 93.3938 97.5458 91.4246C99.4974 89.4555 100.594 86.7848 100.594 84V35C100.594 32.2152 99.4974 29.5445 97.5458 27.5754C95.5943 25.6062 92.9474 24.5 90.1875 24.5ZM69.375 63H58.9688V73.5C58.9688 74.4283 58.6033 75.3185 57.9528 75.9749C57.3023 76.6313 56.42 77 55.5 77C54.58 77 53.6977 76.6313 53.0472 75.9749C52.3967 75.3185 52.0312 74.4283 52.0312 73.5V63H41.625C40.705 63 39.8227 62.6313 39.1722 61.9749C38.5217 61.3185 38.1562 60.4283 38.1562 59.5C38.1562 58.5717 38.5217 57.6815 39.1722 57.0251C39.8227 56.3687 40.705 56 41.625 56H52.0312V45.5C52.0312 44.5717 52.3967 43.6815 53.0472 43.0251C53.6977 42.3687 54.58 42 55.5 42C56.42 42 57.3023 42.3687 57.9528 43.0251C58.6033 43.6815 58.9688 44.5717 58.9688 45.5V56H69.375C70.295 56 71.1773 56.3687 71.8278 57.0251C72.4783 57.6815 72.8438 58.5717 72.8438 59.5C72.8438 60.4283 72.4783 61.3185 71.8278 61.9749C71.1773 62.6313 70.295 63 69.375 63Z" fill="#FD7014"/>
</svg>
