<svg xmlns="http://www.w3.org/2000/svg" width="512" height="512" viewBox="0 0 512 512">
  <defs>
    <style>
      .cls-1 {
        fill: none;
        stroke: #000;
        stroke-width: 35px;
        fill-rule: evenodd;
      }
    </style>
  </defs>
  <path id="Ellipse_1_copy" data-name="Ellipse 1 copy" class="cls-1" d="M49.781,68.688v-1h47v1h-47Zm82.593,77.988V145.7H434.188v0.977H132.374Zm42.407,203.012v-1h199v1h-199ZM99.808,73.916l1.947-.456,64,273-1.947.457Zm330.218,96.146,1.418,0.4L387.331,348.647l-1.452-.311ZM162.484,403.312a34.5,34.5,0,1,1-34.5,34.5A34.5,34.5,0,0,1,162.484,403.312Zm234.907,0a34.5,34.5,0,1,1-34.5,34.5A34.5,34.5,0,0,1,397.391,403.312Z"/>
</svg>
