<svg xmlns="http://www.w3.org/2000/svg" width="512" height="512" viewBox="0 0 512 512">
  <defs>
    <style>
      .cls-1 {
        fill: none;
        stroke: #000;
        stroke-width: 35px;
        fill-rule: evenodd;
      }
    </style>
  </defs>
  <path id="Rectangle_1_copy_8" data-name="Rectangle 1 copy 8" class="cls-1" d="M188.841,337.442H323.129a0.48,0.48,0,0,1,0,.959H188.841A0.48,0.48,0,0,1,188.841,337.442ZM53.595,472.689H187.882a0.48,0.48,0,1,1,0,.959H53.595A0.48,0.48,0,1,1,53.595,472.689Zm270.494,0.959H458.376a0.48,0.48,0,0,1,0,.959H324.088A0.48,0.48,0,1,1,324.088,473.648ZM188.841,338.881V473.168a0.48,0.48,0,1,1-.959,0V338.881A0.48,0.48,0,1,1,188.841,338.881Zm135.247,0V473.168a0.48,0.48,0,1,1-.959,0V338.881A0.48,0.48,0,1,1,324.088,338.881ZM458.735,237.346V473.028a0.5,0.5,0,0,1-.5.5h-0.678a0.5,0.5,0,0,1-.5-0.5V237.346a0.5,0.5,0,0,1,.5-0.5h0.678A0.5,0.5,0,0,1,458.735,237.346Zm-403.822-.959V472.069a0.5,0.5,0,0,1-.5.5H53.735a0.5,0.5,0,0,1-.5-0.5V236.387a0.5,0.5,0,0,1,.5-0.5h0.679A0.5,0.5,0,0,1,54.913,236.387ZM253.257,38.932L58.181,234.008a0.5,0.5,0,0,1-.707,0l-0.681-.682a0.5,0.5,0,0,1,0-.707L251.868,37.544a0.5,0.5,0,0,1,.707,0l0.682,0.681A0.5,0.5,0,0,1,253.257,38.932ZM456.92,236.3L256.793,36.177a0.5,0.5,0,0,1,0-.707l0.718-.717a0.5,0.5,0,0,1,.707,0L458.344,234.879a0.5,0.5,0,0,1,0,.707l-0.717.717A0.5,0.5,0,0,1,456.92,236.3Z"/>
</svg>
