<svg width="67" height="62" viewBox="0 0 67 62" fill="none" xmlns="http://www.w3.org/2000/svg">
<path d="M64.3368 15.6662L50.2931 2.57346C49.7093 2.02911 49.0162 1.5973 48.2533 1.30269C47.4905 1.00808 46.6728 0.856445 45.8471 0.856445C45.0213 0.856445 44.2037 1.00808 43.4408 1.30269C42.678 1.5973 41.9849 2.02911 41.4011 2.57346L2.6427 38.7024C2.05682 39.2449 1.59233 39.8904 1.27615 40.6015C0.959967 41.3126 0.798398 42.0752 0.800808 42.8449V55.9377C0.800808 57.4917 1.46312 58.9821 2.64203 60.0809C3.82095 61.1798 5.4199 61.7971 7.08714 61.7971H21.1339C21.9598 61.7992 22.7778 61.6485 23.5407 61.3538C24.3036 61.0591 24.9962 60.6262 25.5784 60.0803L64.3368 23.9514C65.5153 22.8526 66.1773 21.3625 66.1773 19.8088C66.1773 18.2551 65.5153 16.765 64.3368 15.6662ZM21.2314 47.7346L43.5479 26.9338L47.0053 30.1565L24.6889 50.9572L21.2314 47.7346ZM15.888 42.7541L12.4305 39.5315L34.747 18.7307L38.2045 21.9533L15.888 42.7541ZM8.3444 45.6838L13.2195 50.2277L18.0882 54.7658H8.3444V45.6838ZM52.3487 25.176L40.0904 13.7502L45.8549 8.37717L58.1133 19.8029L52.3487 25.176Z" fill="#FD7014"/>
</svg>
